<svg width="40" height="40" viewBox="0 0 40 40" fill="none" xmlns="http://www.w3.org/2000/svg">
<path d="M37.8889 16.6667H2.11111C0.945177 16.6667 0 18.0844 0 19.8333V20.1667C0 21.9156 0.945177 23.3333 2.11111 23.3333H37.8889C39.0548 23.3333 40 21.9156 40 20.1667V19.8333C40 18.0844 39.0548 16.6667 37.8889 16.6667Z" fill="white"/>
<path d="M37.8889 33.3333H2.11111C0.945177 33.3333 0 34.7511 0 36.5V36.8333C0 38.5822 0.945177 40 2.11111 40H37.8889C39.0548 40 40 38.5822 40 36.8333V36.5C40 34.7511 39.0548 33.3333 37.8889 33.3333Z" fill="white"/>
<path d="M37.8889 0H2.11111C0.945177 0 0 1.41776 0 3.16667V3.5C0 5.2489 0.945177 6.66667 2.11111 6.66667H37.8889C39.0548 6.66667 40 5.2489 40 3.5V3.16667C40 1.41776 39.0548 0 37.8889 0Z" fill="white"/>
</svg>
