<svg width="40" height="41" viewBox="0 0 40 41" fill="none" xmlns="http://www.w3.org/2000/svg">
<path fill-rule="evenodd" clip-rule="evenodd" d="M0.972894 1.0588C1.59664 0.435828 2.44217 0.0859091 3.32374 0.0859091C4.2053 0.0859091 5.05083 0.435828 5.67458 1.0588L19.957 15.3413L34.2395 1.0588C34.5441 0.731961 34.9113 0.469811 35.3194 0.287989C35.7275 0.106167 36.168 0.00839874 36.6147 0.000517722C37.0613 -0.00736329 37.505 0.0748036 37.9192 0.242117C38.3335 0.40943 38.7097 0.658463 39.0256 0.974357C39.3415 1.29025 39.5906 1.66654 39.7579 2.08076C39.9252 2.49499 40.0074 2.93868 39.9995 3.38535C39.9916 3.83202 39.8938 4.27253 39.712 4.6806C39.5302 5.08866 39.268 5.45593 38.9412 5.76049L24.6587 20.043L38.9412 34.3254C39.268 34.63 39.5302 34.9972 39.712 35.4053C39.8938 35.8134 39.9916 36.2539 39.9995 36.7006C40.0074 37.1472 39.9252 37.5909 39.7579 38.0051C39.5906 38.4194 39.3415 38.7956 39.0256 39.1115C38.7097 39.4274 38.3335 39.6765 37.9192 39.8438C37.505 40.0111 37.0613 40.0933 36.6147 40.0854C36.168 40.0775 35.7275 39.9797 35.3194 39.7979C34.9113 39.6161 34.5441 39.3539 34.2395 39.0271L19.957 24.7446L5.67458 39.0271C5.04395 39.6147 4.20986 39.9346 3.34803 39.9194C2.4862 39.9042 1.66391 39.5551 1.05441 38.9456C0.444909 38.3361 0.0957783 37.5138 0.0805723 36.652C0.0653662 35.7901 0.385272 34.956 0.972894 34.3254L15.2554 20.043L0.972894 5.76049C0.349919 5.13673 0 4.29121 0 3.40964C0 2.52808 0.349919 1.68255 0.972894 1.0588V1.0588Z" fill="white"/>
</svg>
